<svg width="262" height="261" viewBox="0 0 262 261" fill="none" xmlns="http://www.w3.org/2000/svg">
<path d="M242.015 110.341C252.756 171.257 211.641 229.425 150.18 240.262C88.7204 251.099 30.1898 210.502 19.4486 149.586C8.70743 88.6694 49.8232 30.5019 111.283 19.6649C172.743 8.8278 231.274 49.4249 242.015 110.341Z" fill="#032F54"/>
<path d="M31.223 164.159L51.124 155.762L52.3602 158.692L32.4592 167.089L31.223 164.159ZM31.8295 165.596L34.2342 164.581L39.0858 176.08L36.6811 177.094L31.8295 165.596Z" fill="white"/>
<path d="M41.0158 184.353L56.9998 174.1L53.0637 167.964L55.2606 166.555L64.8498 181.503L62.653 182.913L58.7168 176.777L42.7328 187.03L41.0158 184.353Z" fill="white"/>
<path d="M48.1131 194.814L64.0415 180.225L66.1893 182.57L50.2609 197.159L48.1131 194.814ZM55.7814 189.906L57.7061 188.143L65.7302 196.904L63.8055 198.667L55.7814 189.906ZM63.1705 183.138L65.0951 181.375L73.6663 190.733L71.7416 192.496L63.1705 183.138Z" fill="white"/>
<path d="M79.356 221.195C78.043 220.47 76.9569 219.561 76.0976 218.47C75.248 217.361 74.6487 216.15 74.2998 214.838C73.978 213.517 73.9184 212.136 74.1209 210.694C74.3234 209.253 74.8163 207.823 75.5996 206.405C76.383 204.987 77.3175 203.812 78.4031 202.881C79.5159 201.942 80.7119 201.266 81.991 200.853C83.2974 200.432 84.6413 200.295 86.0228 200.441C87.4044 200.588 88.7516 201.023 90.0646 201.749C91.5351 202.561 92.6924 203.589 93.5365 204.832C94.3903 206.058 94.8899 207.408 95.0352 208.882C95.198 210.365 94.9753 211.865 94.367 213.379L91.636 211.871C92.2305 210.257 92.2648 208.768 91.739 207.403C91.2404 206.031 90.2558 204.939 88.7852 204.127C87.5423 203.44 86.2702 203.137 84.9688 203.218C83.6947 203.291 82.4904 203.734 81.3559 204.546C80.2311 205.342 79.2577 206.483 78.4356 207.971C77.6233 209.442 77.1702 210.882 77.0764 212.293C77.0099 213.696 77.28 214.964 77.8869 216.099C78.4937 217.234 79.4186 218.145 80.6616 218.832C82.1321 219.644 83.5848 219.91 85.0197 219.629C86.4818 219.339 87.7289 218.509 88.761 217.137L91.5182 218.66C90.5326 219.989 89.3685 220.98 88.0258 221.632C86.6927 222.266 85.2753 222.557 83.7736 222.505C82.299 222.444 80.8265 222.008 79.356 221.195Z" fill="white"/>
<path d="M90.1838 226.391L96.8714 205.853L99.8951 206.837L93.2075 227.376L90.1838 226.391ZM91.6671 226.874L92.4752 224.392L105.255 228.554L104.447 231.035L91.6671 226.874ZM94.723 217.489L95.5311 215.007L107.284 218.834L106.476 221.316L94.723 217.489ZM97.5466 208.817L98.3547 206.336L110.878 210.413L110.069 212.895L97.5466 208.817Z" fill="white"/>
<path d="M109.486 232.227L109.817 229.608L115.442 230.317C117.149 230.532 118.651 230.369 119.949 229.827C121.267 229.288 122.331 228.444 123.141 227.297C123.95 226.149 124.458 224.761 124.663 223.134C124.866 221.527 124.715 220.087 124.21 218.814C123.725 217.543 122.909 216.503 121.761 215.693C120.636 214.866 119.21 214.343 117.484 214.125L111.888 213.42L112.219 210.8L117.814 211.506C120.116 211.796 122.065 212.486 123.661 213.574C125.258 214.662 126.421 216.069 127.151 217.794C127.903 219.501 128.143 221.436 127.87 223.599C127.598 225.762 126.882 227.597 125.725 229.104C124.57 230.591 123.082 231.674 121.263 232.351C119.464 233.032 117.424 233.228 115.142 232.94L109.486 232.227ZM107.581 231.987L110.284 210.556L113.439 210.954L110.736 232.385L107.581 231.987Z" fill="white"/>
<path d="M137.733 234.05C134.98 234.257 132.806 233.609 131.208 232.105C129.611 230.6 128.699 228.352 128.474 225.361L127.532 212.856L130.703 212.617L131.672 225.481C131.827 227.535 132.413 229.065 133.432 230.072C134.449 231.058 135.815 231.487 137.53 231.358C139.285 231.225 140.591 230.596 141.449 229.468C142.307 228.34 142.658 226.74 142.501 224.665L141.533 211.802L144.704 211.563L145.65 224.127C145.872 227.079 145.296 229.419 143.922 231.147C142.568 232.874 140.505 233.841 137.733 234.05Z" fill="white"/>
<path d="M150.038 232.39L144.673 211.466L147.754 210.677L153.119 231.6L150.038 232.39ZM151.549 232.002L150.901 229.474L162.99 226.374L163.638 228.902L151.549 232.002Z" fill="white"/>
<path d="M164.743 228.831L163.229 205.802L165.742 204.662L167.584 227.543L164.743 228.831ZM179.962 221.932L163.966 205.467L166.617 204.266L182.967 220.569L179.962 221.932ZM164.931 219.293L175.478 214.511L176.568 216.916L166.021 221.697L164.931 219.293Z" fill="white"/>
<path d="M200.097 207.84L187.829 193.82L188.416 193.625C188.589 194.218 188.612 194.928 188.486 195.756C188.36 196.584 188.113 197.425 187.744 198.279C187.362 199.118 186.87 199.907 186.268 200.647L184.253 198.344C184.823 197.659 185.299 196.897 185.681 196.058C186.05 195.204 186.298 194.349 186.426 193.493C186.541 192.622 186.514 191.847 186.347 191.17L188.198 189.55L202.423 205.805L200.097 207.84Z" fill="white"/>
<path d="M210.608 197.668C209.479 198.992 208.129 199.851 206.557 200.246C204.97 200.627 203.297 200.554 201.539 200.027C199.765 199.487 198.049 198.51 196.39 197.095C194.731 195.681 193.518 194.16 192.751 192.533C191.968 190.893 191.654 189.272 191.811 187.67C191.952 186.056 192.587 184.587 193.716 183.263C194.846 181.939 196.189 181.088 197.748 180.708C199.305 180.301 200.955 180.354 202.698 180.868C204.426 181.369 206.119 182.327 207.778 183.742C209.452 185.169 210.688 186.71 211.486 188.363C212.284 190.016 212.62 191.656 212.494 193.284C212.353 194.898 211.724 196.36 210.608 197.668ZM208.531 195.897C209.271 195.029 209.634 194.064 209.62 193.001C209.592 191.925 209.228 190.826 208.528 189.705C207.827 188.554 206.83 187.428 205.536 186.325C204.258 185.235 203.011 184.447 201.795 183.962C200.592 183.462 199.479 183.302 198.458 183.482C197.435 183.634 196.546 184.152 195.794 185.034C195.028 185.932 194.644 186.906 194.643 187.956C194.654 188.991 194.995 190.07 195.666 191.195C196.335 192.291 197.308 193.384 198.586 194.474C199.88 195.577 201.15 196.384 202.396 196.895C203.643 197.406 204.786 197.592 205.824 197.453C206.876 197.298 207.778 196.779 208.531 195.897Z" fill="white"/>
<path d="M221.415 182.668C220.73 183.842 219.901 184.748 218.927 185.384C217.964 186.004 216.903 186.334 215.744 186.376C214.586 186.418 213.353 186.15 212.045 185.573L213.693 182.748C214.993 183.298 216.096 183.432 217.001 183.15C217.907 182.867 218.641 182.242 219.206 181.275C219.629 180.549 219.84 179.85 219.838 179.178C219.847 178.488 219.639 177.812 219.216 177.148C218.803 176.467 218.175 175.777 217.333 175.077C216.473 174.368 215.387 173.63 214.074 172.864L212.39 171.882L212.88 171.161C213.591 171.807 214.107 172.571 214.426 173.452C214.729 174.323 214.817 175.243 214.692 176.211C214.577 177.163 214.247 178.105 213.703 179.038C213.028 180.196 212.183 181.069 211.168 181.658C210.153 182.247 209.059 182.535 207.886 182.522C206.695 182.499 205.53 182.155 204.39 181.49C203.18 180.785 202.296 179.898 201.738 178.832C201.162 177.755 200.919 176.583 201.01 175.316C201.093 174.022 201.513 172.727 202.268 171.431C203.609 169.134 205.435 167.849 207.747 167.576C210.069 167.287 212.767 168.039 215.843 169.832C217.898 171.031 219.494 172.344 220.63 173.771C221.759 175.17 222.391 176.627 222.527 178.141C222.672 179.639 222.302 181.147 221.415 182.668ZM211.969 176.95C212.624 175.827 212.837 174.747 212.608 173.711C212.389 172.657 211.727 171.808 210.621 171.163C209.878 170.73 209.126 170.511 208.364 170.507C207.596 170.475 206.881 170.649 206.22 171.027C205.542 171.396 204.981 171.96 204.538 172.72C203.903 173.809 203.74 174.883 204.048 175.942C204.349 176.974 205.061 177.818 206.184 178.473C207.272 179.108 208.34 179.302 209.387 179.056C210.433 178.81 211.294 178.108 211.969 176.95Z" fill="white"/>
<path d="M229.856 163.994L224.52 161.99L224 161.667L212.457 157.332L213.167 156.381L221.405 169.088L219.878 169.829L225.088 155.955L227.531 156.872L221.73 172.319L219.455 171.465L209.677 156.288L210.784 153.339L231.005 160.933L229.856 163.994Z" fill="white"/>
<path d="M234.312 146.81L228.712 145.748L228.145 145.518L216.031 143.222L216.567 142.163L226.858 153.274L225.479 154.265L228.24 139.704L230.804 140.19L227.731 156.402L225.343 155.949L213.113 142.668L213.7 139.574L234.922 143.597L234.312 146.81Z" fill="white"/>
<path d="M235.987 132.384C235.951 133.944 235.649 135.297 235.083 136.444C234.516 137.571 233.756 138.444 232.801 139.062C231.827 139.659 230.74 139.944 229.54 139.916C228.461 139.891 227.496 139.638 226.647 139.159C225.799 138.659 225.134 137.993 224.653 137.162C224.153 136.31 223.915 135.374 223.938 134.354L224.573 134.159C224.549 135.179 224.319 136.064 223.881 136.814C223.423 137.563 222.81 138.149 222.04 138.571C221.25 138.973 220.375 139.163 219.416 139.14C218.276 139.114 217.283 138.79 216.437 138.171C215.572 137.55 214.911 136.705 214.456 135.634C213.981 134.542 213.761 133.277 213.794 131.837C213.827 130.418 214.106 129.184 214.631 128.136C215.135 127.087 215.834 126.273 216.728 125.694C217.602 125.114 218.608 124.838 219.748 124.864C220.708 124.886 221.562 125.126 222.312 125.584C223.062 126.022 223.648 126.625 224.07 127.395C224.493 128.165 224.692 129.07 224.667 130.11L224.043 129.855C224.067 128.816 224.349 127.892 224.888 127.084C225.407 126.276 226.101 125.652 226.972 125.212C227.843 124.753 228.828 124.535 229.928 124.561C231.128 124.589 232.19 124.934 233.115 125.596C234.04 126.237 234.759 127.144 235.272 128.316C235.785 129.469 236.024 130.825 235.987 132.384ZM233.378 132.323C233.409 131.004 233.083 129.956 232.401 129.18C231.699 128.383 230.749 127.971 229.549 127.943C228.369 127.916 227.431 128.284 226.733 129.048C226.035 129.792 225.671 130.824 225.64 132.143C225.609 133.463 225.925 134.521 226.587 135.316C227.249 136.092 228.17 136.493 229.349 136.521C230.549 136.549 231.518 136.191 232.255 135.448C232.973 134.685 233.347 133.643 233.378 132.323ZM223.151 132.085C223.178 130.926 222.899 130.009 222.315 129.335C221.731 128.641 220.929 128.282 219.909 128.259C218.869 128.235 218.031 128.565 217.395 129.25C216.76 129.916 216.429 130.808 216.403 131.928C216.376 133.068 216.665 133.985 217.269 134.679C217.873 135.373 218.695 135.732 219.734 135.757C220.754 135.78 221.572 135.459 222.188 134.794C222.803 134.128 223.124 133.225 223.151 132.085Z" fill="white"/>
<path d="M235.04 115.542C235.343 117.701 235.022 119.513 234.076 120.978C233.111 122.447 231.709 123.462 229.869 124.023L229.414 120.785C230.53 120.386 231.36 119.754 231.905 118.89C232.43 118.029 232.618 117.063 232.468 115.994C232.307 114.845 231.805 113.936 230.964 113.266C230.1 112.58 228.876 112.348 227.292 112.57C225.727 112.79 224.603 113.341 223.919 114.225C223.215 115.112 222.948 116.159 223.118 117.367C223.232 118.179 223.512 118.877 223.957 119.461C224.383 120.047 224.892 120.44 225.486 120.64L225.886 123.492L214.124 124.083L212.493 112.467L215.078 112.104L216.5 122.234L215.625 120.964L223.675 120.47L223.588 121.36C222.859 121.059 222.232 120.551 221.708 119.837C221.161 119.106 220.807 118.166 220.645 117.017C220.459 115.69 220.581 114.472 221.01 113.361C221.44 112.251 222.15 111.333 223.138 110.609C224.127 109.884 225.355 109.419 226.82 109.213C228.325 109.002 229.656 109.128 230.812 109.592C231.965 110.036 232.906 110.772 233.636 111.801C234.363 112.809 234.831 114.056 235.04 115.542Z" fill="white"/>
<path d="M119.389 62.7557C116.138 63.3288 113.101 64.9906 110.671 67.4784L103.118 75.0094L93.4237 78.0595L93.2624 78.0879L93.1296 78.2776C90.0031 79.5843 87.3117 81.7515 85.3681 84.5273C83.4245 87.303 82.3085 90.5734 82.1499 93.9583L82.0223 94.147L82.0507 94.3082L82.5278 104.617L77.891 113.479L77.753 113.669L77.7814 113.831C75.1703 120.281 76.3315 127.809 81.2723 132.655L88.9646 140.179L92.1699 148.838L79.9261 177.301L75.9688 186.214L100.835 181.83L109.311 194.745L114.627 203.026L118.556 193.951L130.615 166.352C135.344 167.384 140.351 166.673 144.272 163.944L165.043 185.754L171.839 192.938L174.002 183.338L177.55 168.303L202.416 163.918L195.649 156.896L175.04 135.062L174.621 125.081L179.115 115.408L179.253 115.217L179.224 115.056C181.835 108.606 180.703 101.239 175.762 96.3931L168.23 88.8351L164.56 79.4271L164.721 79.3987C164.678 79.2775 164.544 79.2154 164.502 79.0995C162.367 72.4616 156.01 67.8873 149.017 68.2568L148.851 68.2862L138.87 68.7054L129.197 64.2118C126.16 62.7141 122.73 62.2049 119.389 62.7557ZM121.252 73.3189C122.448 73.108 123.693 73.2639 124.675 73.7235L135.112 78.7527L136.394 79.3632L137.724 79.3004L149.39 78.9166L149.546 78.889C151.932 78.7364 153.842 80.0782 154.52 82.3719L154.577 82.6943L158.729 93.8622L159.086 94.9737L160.074 95.8023L168.369 103.891C169.917 105.398 170.595 108.298 169.469 111.07L163.962 122.601L164.025 123.93L164.409 135.596L164.437 135.752C164.492 136.58 164.352 137.41 164.027 138.173L163.729 138.397L163.756 138.553C163.147 139.618 162.141 140.399 160.959 140.725L160.631 140.783L149.141 144.992L147.868 145.377L147.034 146.366L138.946 154.662C137.439 156.209 134.378 156.915 131.605 155.79L122.007 150.779L120.886 150.14L119.395 150.231L107.729 150.615L107.573 150.643C106.827 150.705 106.076 150.588 105.384 150.302C104.691 150.015 104.078 149.567 103.593 148.996C103.143 148.456 102.805 147.832 102.599 147.16L102.543 146.837L98.3391 135.346L97.9434 134.075L96.9596 133.24L88.6638 125.152C87.1163 123.645 86.4103 120.584 87.5356 117.811L92.5466 108.213L93.1856 107.092L93.0891 105.602L92.6354 94.4529C92.6425 94.3712 92.7621 94.3501 92.7682 94.2632C92.875 92.955 93.328 91.6987 94.0809 90.6235C94.8338 89.5483 95.8593 88.6929 97.0522 88.1451C97.1317 88.1097 97.1106 87.99 97.185 87.9555L107.817 84.5684L109.09 84.1831L110.085 83.1657L118.173 74.8699C118.94 74.1073 120.055 73.5299 121.252 73.3189ZM171.127 146.14L181.244 156.926L168.72 159.134L167.993 162.614L165.881 171.53L151.848 156.575L153.968 154.362L163.898 150.766L163.927 150.927C164.043 150.885 164.1 150.752 164.221 150.709C166.889 149.832 169.277 148.253 171.127 146.14ZM99.3188 158.968C101.939 160.623 105.007 161.428 108.102 161.275L108.263 161.246L118.411 160.798L120.999 162.186L112.898 180.872L107.864 173.217L105.991 170.195L93.4772 172.402L99.3188 158.968Z" fill="white"/>
</svg>
